<?xml version="1.0" encoding="UTF-8"?>
<svg id="Layer_1" data-name="Layer 1" xmlns="http://www.w3.org/2000/svg" xmlns:xlink="http://www.w3.org/1999/xlink" viewBox="0 0 546.63 472.1">
  <defs>
    <style>
      .cls-1 {
        fill: url(#GradientFill_1);
        fill-rule: evenodd;
      }
    </style>
    <linearGradient id="GradientFill_1" data-name="GradientFill 1" x1="384.78" y1="101.83" x2="171.94" y2="293.9" gradientUnits="userSpaceOnUse">
      <stop offset="0" stop-color="#f27fb2"/>
      <stop offset="1" stop-color="#445ca9"/>
    </linearGradient>
  </defs>
  <path class="cls-1" d="M135.72,217.16c27.56-81.52,82.72-144.22,187.04-173.39-65.84-29.2-123.99-25.18-176.87,1.57-19.06,51.97-23.45,108.9-10.16,171.82h0ZM387.52,334.71c-5.83,10.64-10.88,19.67-16.71,30.31-7.64,13.93-7.42,16.04-15.72,3.78l-8.44-12.46-146.74,88.57c39.62,7.65,76.17,3,110.31-11.27,28.96-10.87,54.88-27.95,76.19-49.58,37.95-36.39,56.17-79.03,59.98-126.25l25.62-15.46c-3.35,127.45-107.71,229.74-235.97,229.74-37.47,0-72.89-8.75-104.36-24.29l25.65-15.48.11.04,170.86-103.13-8.17-12.07c-8.3-12.25-6.42-11.28,9.35-13.19,12.04-1.47,22.3-2.81,34.34-4.27,46.64-5.75,46.36-6.17,23.71,35.01h0ZM531.74,157.92c-5.83,10.64-10.88,19.67-16.71,30.31-7.64,13.93-7.43,16.04-15.72,3.78l-8.69-12.83L96.38,417.17l-6.71,4.05h0s0,0,0,0h0C35.04,377.99,0,311.11,0,236.05,0,105.68,105.68,0,236.04,0c103.68,0,191.72,66.84,223.43,159.78l12.78-7.72-7.92-11.69c-8.3-12.25-6.42-11.28,9.35-13.19,12.04-1.47,22.3-2.81,34.34-4.27,46.64-5.75,46.36-6.17,23.71,35.01h0ZM437.53,173.03l-24.41,14.73c-67.7-51.24-138.45-61.26-211.01-46.64,47.82-43.03,99.28-67.77,153.79-77.33,38.96,25.4,67.45,60.64,81.63,109.24h0ZM390.15,201.63l-41.83,25.25c-11.05-24.63-26.11-47.38-44.39-68.62,32.69,11.06,61.31,25.63,86.22,43.37h0ZM168.56,335.4c-48.9-8.21-96.73-31.96-143.12-76.77,6.24,55.26,27.26,96.55,59.46,127.28l83.66-50.5h0ZM169.12,313.05c-60.85-20.82-107.51-53.75-142.39-96.71,4.11-59.15,30.42-111.16,89.23-152.74-28.36,104.54-2.75,184.01,53.16,249.46Z"/>
</svg>